<?xml version="1.0" encoding="iso-8859-1"?>
<!-- Generator: Adobe Illustrator 19.0.0, SVG Export Plug-In . SVG Version: 6.00 Build 0)  -->
<svg version="1.1" id="Capa_1" xmlns="http://www.w3.org/2000/svg" xmlns:xlink="http://www.w3.org/1999/xlink" x="0px" y="0px"
	 viewBox="0 0 486.554 486.554" style="enable-background:new 0 0 486.554 486.554;" xml:space="preserve">
<linearGradient id="SVGID_1_" gradientUnits="userSpaceOnUse" x1="355.5152" y1="495.2796" x2="355.5152" y2="15.2796" gradientTransform="matrix(1 0 0 -1 0 488.5592)">
	<stop  offset="0" style="stop-color:#00EFD1"/>
	<stop  offset="1" style="stop-color:#00ACEA"/>
</linearGradient>
<path style="fill:url(#SVGID_1_);" d="M355.514,111.867c-26.769,0.001-48.47,21.702-48.469,48.471s21.702,48.47,48.471,48.469
	c26.769-0.001,48.469-21.701,48.469-48.47C403.983,133.568,382.283,111.868,355.514,111.867z M331.254,189.419
	c-5.354,0-9.694-4.34-9.694-9.694s4.34-9.694,9.694-9.694s9.694,4.34,9.694,9.694c0.026,5.328-4.272,9.668-9.6,9.694
	C331.317,189.419,331.286,189.419,331.254,189.419z M365.209,165.21c-10.722,0.015-19.426-8.665-19.441-19.387
	c-0.015-10.722,8.665-19.426,19.387-19.441s19.426,8.665,19.441,19.387c0,0,0,0.001,0,0.001
	C384.592,156.484,375.923,165.177,365.209,165.21z"/>
<g>
	
		<linearGradient id="SVGID_2_" gradientUnits="userSpaceOnUse" x1="131.1012" y1="495.2796" x2="131.1012" y2="15.2796" gradientTransform="matrix(1 0 0 -1 0 488.5592)">
		<stop  offset="0" style="stop-color:#00EFD1"/>
		<stop  offset="1" style="stop-color:#00ACEA"/>
	</linearGradient>
	<path style="fill:url(#SVGID_2_);" d="M131.05,111.867c-26.769,0.028-48.447,21.752-48.419,48.521
		c0.028,26.769,21.752,48.447,48.521,48.419c26.749-0.028,48.419-21.721,48.419-48.47c0.004-26.765-21.691-48.466-48.456-48.47
		C131.094,111.867,131.072,111.867,131.05,111.867z M106.84,189.419c-5.354,0-9.694-4.34-9.694-9.694
		c0-5.354,4.34-9.694,9.694-9.694c5.354,0,9.694,4.34,9.694,9.694c0.026,5.328-4.272,9.668-9.6,9.694
		C106.903,189.419,106.872,189.419,106.84,189.419z M140.795,165.21c-10.722,0.015-19.426-8.665-19.441-19.387
		c-0.015-10.722,8.665-19.426,19.387-19.441s19.426,8.665,19.441,19.387c0,0,0,0.001,0,0.001
		C160.178,156.484,151.509,165.177,140.795,165.21z"/>
	
		<linearGradient id="SVGID_3_" gradientUnits="userSpaceOnUse" x1="243.2769" y1="495.2796" x2="243.2769" y2="15.2796" gradientTransform="matrix(1 0 0 -1 0 488.5592)">
		<stop  offset="0" style="stop-color:#00EFD1"/>
		<stop  offset="1" style="stop-color:#00ACEA"/>
	</linearGradient>
	<path style="fill:url(#SVGID_3_);" d="M243.282,0.002C108.928-0.005,0.007,108.905,0,243.259
		c-0.003,64.529,25.632,126.416,71.264,172.042c95.004,95.003,249.035,95.002,344.038-0.002s95.002-249.035-0.002-344.038
		C369.779,25.488,307.838-0.172,243.282,0.002L243.282,0.002z M243.282,466.558c-123.116,0-223.278-100.162-223.278-223.278
		S120.166,20.002,243.282,20.002S466.56,120.164,466.56,243.28S366.398,466.558,243.282,466.558z"/>
	
		<linearGradient id="SVGID_4_" gradientUnits="userSpaceOnUse" x1="240.7822" y1="495.2796" x2="240.7822" y2="15.2796" gradientTransform="matrix(1 0 0 -1 0 488.5592)">
		<stop  offset="0" style="stop-color:#00EFD1"/>
		<stop  offset="1" style="stop-color:#00ACEA"/>
	</linearGradient>
	<path style="fill:url(#SVGID_4_);" d="M291.773,220.346c-28.282-28.204-74.072-28.141-102.276,0.141
		c-12.797,12.833-20.31,30.002-21.051,48.11c-0.063,1.044-0.164,1.991-0.164,2.832v94.037c0,39.815,32.685,72.208,72.5,72.208
		s72.5-32.394,72.5-72.208v-94.037c0-0.841-0.192-1.788-0.256-2.833C312.274,250.409,304.684,233.177,291.773,220.346
		L291.773,220.346z M240.69,219.221c13.85-0.05,27.146,5.441,36.924,15.25c4.656,4.669,8.392,10.172,11.012,16.223
		c-30.374-14.369-65.595-14.337-95.943,0.088C200.891,231.572,219.8,219.141,240.69,219.221L240.69,219.221z M293.282,365.466
		c0,28.787-23.713,52.208-52.5,52.208s-52.5-23.421-52.5-52.208v-89.2l1.954-1.124c31.354-20.692,72.133-20.265,103.046,1.08
		V365.466z"/>
</g>
<g>
</g>
<g>
</g>
<g>
</g>
<g>
</g>
<g>
</g>
<g>
</g>
<g>
</g>
<g>
</g>
<g>
</g>
<g>
</g>
<g>
</g>
<g>
</g>
<g>
</g>
<g>
</g>
<g>
</g>
</svg>
