<svg height="40" viewBox="0 -25 512 512" width="40" xmlns="http://www.w3.org/2000/svg" xmlns:xlink="http://www.w3.org/1999/xlink"><linearGradient id="linear0" gradientUnits="userSpaceOnUse" x1="0" x2="512" y1="231" y2="231"><stop offset="0" stop-color="#00f2fe"/><stop offset=".0208" stop-color="#03effe"/><stop offset=".2931" stop-color="#24d2fe"/><stop offset=".5538" stop-color="#3cbdfe"/><stop offset=".7956" stop-color="#4ab0fe"/><stop offset="1" stop-color="#4facfe"/></linearGradient><path d="m472 282v-130c0-22.054688-17.945312-40-40-40-.335938 0-.667969-.007812-.996094-.023438-24.992187-.710937-46.988281-16.863281-55.082031-40.640624l-6.050781-17.78125c-2.761719-8.109376-10.367188-13.554688-18.933594-13.554688h-106.769531c-8.398438 0-15.957031 5.308594-18.8125 13.207031l-6.921875 19.171875c-8.558594 23.699219-31.238282 39.621094-56.433594 39.621094h-82c-22.054688 0-40 17.945312-40 40v230c0 22.054688 17.945312 40 40 40h10v-190c0-11.046875 8.953125-20 20-20s20 8.953125 20 20v190h302c22.054688 0 40-17.945312 40-40 0-11.046875 8.953125-20 20-20s20 8.953125 20 20c0 44.113281-35.886719 80-80 80h-352c-44.113281 0-80-35.886719-80-80v-230c0-44.113281 35.886719-80 80-80h82c8.398438 0 15.957031-5.308594 18.8125-13.207031l6.921875-19.171875c8.558594-23.699219 31.234375-39.621094 56.433594-39.621094h106.769531c25.695312 0 48.523438 16.34375 56.800781 40.667969l6.050781 17.777343c2.761719 8.105469 10.367188 13.554688 18.933594 13.554688.242188 0 .484375.003906.722656.011719 43.449219.777343 78.554688 36.359375 78.554688 79.988281v130c0 11.046875-8.953125 20-20 20s-20-8.953125-20-20zm-48-25c0 68.925781-56.074219 125-125 125s-125-56.074219-125-125 56.074219-125 125-125 125 56.074219 125 125zm-40 0c0-46.867188-38.132812-85-85-85s-85 38.132812-85 85 38.132812 85 85 85 85-38.132812 85-85zm-294-95c0 11.046875 8.953125 20 20 20s20-8.953125 20-20-8.953125-20-20-20-20 8.953125-20 20zm0 0" fill="url(#linear0)"/></svg>
