<svg height="40" viewBox="0 0 511.99953 511" width="40" xmlns="http://www.w3.org/2000/svg" xmlns:xlink="http://www.w3.org/1999/xlink"><linearGradient id="linear0" gradientUnits="userSpaceOnUse" x1="-.000472" x2="511.9992423527" y1="256.4856731735" y2="256.4856731735"><stop offset="0" stop-color="#00f2fe"/><stop offset=".0208" stop-color="#03effe"/><stop offset=".2931" stop-color="#24d2fe"/><stop offset=".5538" stop-color="#3cbdfe"/><stop offset=".7956" stop-color="#4ab0fe"/><stop offset="1" stop-color="#4facfe"/></linearGradient><path d="m407.003906.5c-57.890625 0-104.992187 47.101562-104.992187 104.992188 0 57.894531 47.101562 104.996093 104.992187 104.996093 57.894532 0 104.996094-47.101562 104.996094-104.996093 0-57.890626-47.101562-104.992188-104.996094-104.992188zm0 169.988281c-35.835937 0-64.996094-29.15625-64.996094-64.996093 0-35.835938 29.160157-64.996094 64.996094-64.996094 35.839844 0 64.996094 29.160156 64.996094 64.996094 0 35.839843-29.15625 64.996093-64.996094 64.996093zm-63 250.671875c-10.519531 3.355469-16.332031 14.605469-12.976562 25.128906 1.976562 6.199219.914062 12.757813-2.910156 17.992188-3.804688 5.207031-9.691407 8.191406-16.152344 8.191406h-251.894532c-6.457031 0-12.34375-2.984375-16.148437-8.191406-3.828125-5.234375-4.886719-11.792969-2.914063-17.992188 20.179688-63.285156 78.453126-105.808593 145.011719-105.808593 39.960938 0 77.710938 15.355469 106.292969 43.238281 7.90625 7.714844 20.566406 7.558594 28.28125-.351562 7.710938-7.90625 7.554688-20.566407-.351562-28.277344-18.328126-17.878906-39.640626-31.667969-62.785157-40.925782 21.789063-19.25 35.554688-47.382812 35.554688-78.675781 0-57.894531-47.101563-104.996093-104.992188-104.996093-57.894531 0-104.996093 47.101562-104.996093 104.996093 0 30.703125 13.25 58.371094 34.332031 77.585938-16.191407 6.195312-31.570313 14.617187-45.796875 25.175781-32.632813 24.214844-56.375 57.371094-68.65625 95.890625-5.898438 18.496094-2.71875 38.082031 8.722656 53.742187 11.421875 15.625 29.082031 24.589844 48.449219 24.589844h251.890625c19.367187 0 37.027344-8.964844 48.445312-24.589844 11.441406-15.660156 14.625-35.246093 8.726563-53.742187-3.359375-10.523437-14.609375-16.335937-25.132813-12.980469zm-155.984375-250.671875c35.835938 0 64.996094 29.160157 64.996094 65 0 35.835938-29.160156 64.996094-64.996094 64.996094-35.839843 0-64.996093-29.160156-64.996093-64.996094 0-35.839843 29.15625-65 64.996093-65zm0 0" fill="url(#linear0)"/></svg>
