<svg height="40" viewBox="0 0 512 512" width="40" xmlns="http://www.w3.org/2000/svg" xmlns:xlink="http://www.w3.org/1999/xlink"><linearGradient id="linear0" gradientUnits="userSpaceOnUse" x1=".000488" x2="511.9995" y1="256" y2="256"><stop offset="0" stop-color="#00f2fe"/><stop offset=".0208" stop-color="#03effe"/><stop offset=".2931" stop-color="#24d2fe"/><stop offset=".5538" stop-color="#3cbdfe"/><stop offset=".7956" stop-color="#4ab0fe"/><stop offset="1" stop-color="#4facfe"/></linearGradient><path d="m492 163c11.046875 0 20-8.953125 20-20v-44c0-11.046875-8.953125-20-20-20h-62v-18c0-11.046875-8.953125-20-20-20s-20 8.953125-20 20v59h-42v-20c0-11.046875-8.953125-20-20-20h-57c0-44.113281-35.886719-80-80-80h-111c-44.113281 0-80 35.886719-80 80v221c0 42.96875 34.054688 78.117188 76.589844 79.914062l-44.636719 103.140626c-5.714844 13.207031 3.96875 27.945312 18.359375 27.945312 7.972656 0 15.1875-4.738281 18.351562-12.058594l47.335938-109.378906v101.4375c0 11.046875 8.953125 20 20 20s20-8.953125 20-20v-99.128906l46.335938 107.070312c3.164062 7.320313 10.378906 12.058594 18.351562 12.058594 14.390625 0 24.070312-14.738281 18.355469-27.945312l-44.59375-103.054688h215.550781c11.046875 0 20-8.953125 20-20v-59h62c11.046875 0 20-8.953125 20-20v-42c0-11.046875-8.953125-20-20-20s-20 8.953125-20 20v22h-42v-143h42v24c0 11.046875 8.953125 20 20 20zm-102-3v61h-42v-61zm-82-40v140h-37v-140zm-77 221h-151c-22.054688 0-40-17.945312-40-40v-221c0-22.054688 17.945312-40 40-40h111c22.054688 0 40 17.945312 40 40zm40 0v-41h57c11.046875 0 20-8.953125 20-20v-19h42v80zm-160-251c0 11.046875-8.953125 20-20 20s-20-8.953125-20-20 8.953125-20 20-20 20 8.953125 20 20zm0 0" fill="url(#linear0)"/></svg>
